<mxfile host="app.diagrams.net" agent="Mozilla/5.0 (Windows NT 10.0; Win64; x64) AppleWebKit/537.36 (KHTML, like Gecko) Chrome/131.0.0.0 Safari/537.36" version="25.0.1">
  <diagram name="Page-1" id="xKMnSjk51PRVjaDMhpqy">
    <mxGraphModel dx="954" dy="558" grid="1" gridSize="10" guides="1" tooltips="1" connect="1" arrows="1" fold="1" page="1" pageScale="1" pageWidth="827" pageHeight="1169" math="0" shadow="0">
      <root>
        <mxCell id="0" />
        <mxCell id="1" parent="0" />
        <mxCell id="L4ErAmd56xSqlTUxU_hA-1" value="" style="rounded=0;whiteSpace=wrap;html=1;" parent="1" vertex="1">
          <mxGeometry y="50" width="810" height="530" as="geometry" />
        </mxCell>
        <mxCell id="L4ErAmd56xSqlTUxU_hA-2" value="&lt;font style=&quot;font-size: 14px;&quot;&gt;Logo&lt;/font&gt;" style="ellipse;whiteSpace=wrap;html=1;aspect=fixed;" parent="1" vertex="1">
          <mxGeometry x="50" y="110" width="100" height="100" as="geometry" />
        </mxCell>
        <mxCell id="L4ErAmd56xSqlTUxU_hA-3" value="&lt;font style=&quot;font-size: 15px;&quot;&gt;Company name&lt;/font&gt;" style="text;html=1;align=center;verticalAlign=middle;whiteSpace=wrap;rounded=0;" parent="1" vertex="1">
          <mxGeometry x="160" y="145" width="110" height="30" as="geometry" />
        </mxCell>
        <mxCell id="L4ErAmd56xSqlTUxU_hA-4" value="&lt;h1 style=&quot;margin-top: 0px;&quot;&gt;Welcome!&lt;/h1&gt;&lt;p&gt;Lorem ipsum dolor sit amet, consectetur adipisicing elit, sed do eiusmod tempor incididunt ut labore et dolore magna aliqua.&lt;/p&gt;" style="text;html=1;whiteSpace=wrap;overflow=hidden;rounded=0;" parent="1" vertex="1">
          <mxGeometry x="60" y="280" width="180" height="120" as="geometry" />
        </mxCell>
        <mxCell id="L4ErAmd56xSqlTUxU_hA-7" value="" style="endArrow=none;dashed=1;html=1;rounded=0;entryX=0.5;entryY=0;entryDx=0;entryDy=0;exitX=0.5;exitY=1;exitDx=0;exitDy=0;" parent="1" edge="1">
          <mxGeometry width="50" height="50" relative="1" as="geometry">
            <mxPoint x="360" y="580" as="sourcePoint" />
            <mxPoint x="360" y="50" as="targetPoint" />
          </mxGeometry>
        </mxCell>
        <mxCell id="L4ErAmd56xSqlTUxU_hA-8" value="&lt;font style=&quot;font-size: 25px;&quot;&gt;Let&#39;s get started!&lt;/font&gt;" style="text;html=1;align=center;verticalAlign=middle;whiteSpace=wrap;rounded=0;" parent="1" vertex="1">
          <mxGeometry x="452.5" y="110" width="190" height="90" as="geometry" />
        </mxCell>
        <mxCell id="L4ErAmd56xSqlTUxU_hA-9" value="&lt;font style=&quot;font-size: 14px;&quot;&gt;Username/Email&lt;/font&gt;" style="rounded=1;whiteSpace=wrap;html=1;" parent="1" vertex="1">
          <mxGeometry x="455" y="185" width="255" height="50" as="geometry" />
        </mxCell>
        <mxCell id="L4ErAmd56xSqlTUxU_hA-11" value="&lt;font style=&quot;font-size: 14px;&quot;&gt;Password&lt;/font&gt;" style="rounded=1;whiteSpace=wrap;html=1;" parent="1" vertex="1">
          <mxGeometry x="455" y="245" width="255" height="50" as="geometry" />
        </mxCell>
        <mxCell id="L4ErAmd56xSqlTUxU_hA-13" value="Forgot Password?" style="text;html=1;align=center;verticalAlign=middle;whiteSpace=wrap;rounded=0;fontColor=#A9C4EB;" parent="1" vertex="1">
          <mxGeometry x="610" y="475" width="100" height="30" as="geometry" />
        </mxCell>
        <mxCell id="L4ErAmd56xSqlTUxU_hA-14" value="New User?" style="text;html=1;align=center;verticalAlign=middle;whiteSpace=wrap;rounded=0;fontColor=#A9C4EB;" parent="1" vertex="1">
          <mxGeometry x="470" y="475" width="85" height="30" as="geometry" />
        </mxCell>
        <mxCell id="L4ErAmd56xSqlTUxU_hA-16" value="&lt;font style=&quot;font-size: 14px;&quot;&gt;Enter Captcha&lt;/font&gt;" style="rounded=1;whiteSpace=wrap;html=1;" parent="1" vertex="1">
          <mxGeometry x="455" y="305" width="255" height="50" as="geometry" />
        </mxCell>
        <mxCell id="L4ErAmd56xSqlTUxU_hA-18" value="&lt;font style=&quot;font-size: 14px;&quot;&gt;Captcha&lt;/font&gt;" style="rounded=0;whiteSpace=wrap;html=1;" parent="1" vertex="1">
          <mxGeometry x="522.5" y="370" width="120" height="50" as="geometry" />
        </mxCell>
        <mxCell id="L4ErAmd56xSqlTUxU_hA-19" value="Login" style="ellipse;whiteSpace=wrap;html=1;fillColor=#dae8fc;strokeColor=#6c8ebf;" parent="1" vertex="1">
          <mxGeometry x="522.5" y="440" width="120" height="30" as="geometry" />
        </mxCell>
      </root>
    </mxGraphModel>
  </diagram>
</mxfile>
